<?xml version="1.0" encoding="utf-8"?>
<!-- Generator: Adobe Illustrator 28.1.0, SVG Export Plug-In . SVG Version: 6.00 Build 0)  -->
<svg version="1.1" id="svg" xmlns="http://www.w3.org/2000/svg" xmlns:xlink="http://www.w3.org/1999/xlink" x="0px" y="0px"
	 viewBox="0 0 400 404.9" style="enable-background:new 0 0 400 404.9;" xml:space="preserve">
<style type="text/css">
	.st0{fill-rule:evenodd;clip-rule:evenodd;fill:#FFFFFF;}
	.st1{fill-rule:evenodd;clip-rule:evenodd;fill:url(#path0_00000044138338006294416880000008435001375171218563_);}
</style>
<polygon id="Fill_Color" class="st0" points="307.7,399.2 216.4,389.2 91.6,360.1 13.3,347.1 37.1,319.1 8.8,317.1 41.2,288.8 
	13.3,273.2 69.5,249.3 53,219.6 75.9,221 66.1,210.3 99.3,208.1 94.5,163.8 108.4,136.7 103.5,102.2 118.9,49.7 137.2,14.5 
	201,66.5 251.7,13.6 250.1,102.1 338,104.4 284,139 306.1,161.4 328.5,176.9 392.5,254.4 334.8,276 290.3,287 335.7,344 
	306.8,348.6 327.4,369.5 291.5,367.3 "/>
<g id="Icon">
	
		<linearGradient id="path0_00000176041492027617038780000007135803841751284368_" gradientUnits="userSpaceOnUse" x1="28.7323" y1="403.1389" x2="429.2773" y2="2.594">
		<stop  offset="0" style="stop-color:#A91E22"/>
		<stop  offset="1" style="stop-color:#F15E58"/>
	</linearGradient>
	
		<path id="path0" style="fill-rule:evenodd;clip-rule:evenodd;fill:url(#path0_00000176041492027617038780000007135803841751284368_);" d="
		M256.1,1.6c-13.7,13.5-42,44-55.8,58c-15.6-14.1-35.7-30.1-52.4-44.3C141,9.6,136.1,5.6,136,5.6c-0.3,0-14.6,27.8-17.9,34.9
		c-9.7,20.4-15.6,35.9-17.2,45.9c-2.6,15.4-2.6,35.2,0,44.6c1.4,5,1.4,5.8-0.1,7.6c-1,1.2-2.7,4.2-5.1,8.9
		c-4.4,8.8-5.3,11.3-5.7,16.3c-0.6,9.7-1.2,25.6,0.9,34.3c1.3,6.8,3.6,8-8.4,8.9c-9.2,0.8-11.8,1.4-16.5,2.2l-2.2,0.5l1,2.3
		c1.3,2.3,0.9,1.5,1.4,2.6l1.7,2.6L66,217c-1.1-0.3-0.7,0-7.2-1.1c-7.3-1.2-10.7-1.7-13-1.8l-1.3-0.1v0.2c0,0.9,3.3,6.8,10.1,18.2
		c7.5,12.5,8.2,14.2,6.3,15.4c-2.2,1.4-7.7,3.8-27.5,12.1c-17,7.1-17.5,7.3-21.1,9.1c-2.9,1.4-4.4,2.4-4.4,2.8s4.2,3,11.4,7.3
		c9.1,5.3,13.6,8.1,14.9,9.3l0.4,0.3c-10.5,10.4-9.2,8.6-29.8,26.8c-3.9,3.4-3.9,3.4-3.3,3.4c4.4,0.2,22.2,1.1,26.8,2
		c-1.5,2-6.5,7-13.9,14c-13.3,12.5-16.3,16.4-13,16.6c2.2,0.2,18.4,2.4,25.9,3.4c18.8,2.6,26.4,3.2,28.4,3.5
		c3.4,0.4,19.4,2.4,36.8,5.9c12.9,2.6,36.9,8.1,52.3,12.3c11.3,3.2,53.3,12.3,59.5,14.3c23,7.7,77.7,11.1,105.7,13.6
		c2.9,0.2,7.2,0.3,7.5,0.1c0.4-0.2,0.4-0.6-0.2-1.6c-1.5-2.6-4.9-8.1-11.3-17.8c-5.2-8-9.3-14.6-9.3-15.1c0-1,41.5,3.2,40.2,2.1
		c0-0.4-4.4-4.3-21-18.9c-2.5-2.2-2.8-2.5-2.6-2.5c1.7-0.5,8.7-1.6,18.4-2.9c9.2-1.2,14.1-2.1,14.1-2.8c0-1.2-4.3-6.3-12-14.4
		c-21.1-22.1-35.1-37.6-36.2-40.3c-1.3-3,0.5-4,9.6-5.1c14.3-1.8,27.2-5.4,54.6-15c13.7-4.8,23.8-8.3,30.3-10.3
		c6.2-2,8.3-2.9,8.3-3.9c0-1.5-45.2-59-54.4-69.3c-11.4-12.7-23.5-23.3-32.9-28.6c-3.6-2.1-7.7-5.3-11.7-9.2
		c-1.5-1.5-9.4-9.9-9.3-10c0,0,7.7-4.1,17-9c37.1-19.6,52.2-27.8,53.5-28.8c1.5-1.2-1.1-1.6-13.4-2.1c-4.9-0.2-11.2-0.4-52.8-1.6
		c-24.2-0.9-28.2-0.6-42-1.9l-0.2-0.1c0.3-17.6,0.9-27.4,1.8-47.6c1.7-35.2,2.2-47.9,1.9-48C257.7,0.1,257,0.7,256.1,1.6
		 M139.4,22.1c8.7,4,25.3,19.1,41.6,33.4c4.9,4.3,14.2,13.8,20.6,20.2c7.6-8.9,10.2-11.8,24-27.2c9.3-10.3,14.4-16.1,16.4-18.4
		c1.5-1.8,2.9-3.1,3.1-2.9c0.4,0.4-0.2,11-1.2,23.7c-1.3,16-1.8,28.2-1.6,37.1c0.1,3.5,0.8,18.6,0.8,19.3v0.4
		c19.6,0.5,54.6,1.3,68.5,1.6c10.6,0.3,10.7,0.1,11.7,0.5l-0.2,0.3c-0.7,0.8-8,5.5-36.1,23.3c-5.1,3.2-9.4,5.9-9.4,6
		c-0.1,0.1,0.9,1.2,3.9,4.4c7.1,7.5,11.4,12.4,14.1,15.9c2.6,3.4,5.8,5.8,11.6,8.8c10.9,5.5,25.7,19.5,46.6,44
		c10.4,12.2,33.3,40.2,33.1,40.5c-1.7,0.7-34.5,10.7-36.2,11.3c-10.4,3.3-18.8,5.5-30.4,8.1c-9.9,2.3-15.1,2.8-22.7,3.7
		c-0.1,0.1,0.7,0.9,3.5,3.9l1.3,1.4c-4,1.1-5.4,1.3-12.6,2.2c-6.2,0.7-8.8,1.4-8.8,2.3c0,0.6,1.3,2.6,3.4,5.2
		c2.2,2.8,3.4,4.7,3.7,5.9c0.2,0.9,1.3,2.5,3.6,5.3c2.1,2.5,4.1,4.7,8.6,9.4c8,8.2,18.3,19.5,28.5,30.8c-1,0-4.1-0.1-9-0.2
		c-13-0.3-20.7-0.2-20.7,0.4c0,0.2,3.4,3.9,10.3,11.1c7.5,7.8,10.6,11.3,11.4,12.8c0.3,0.5,0.3,0.5-1.3,0.1
		c-8.7-2.4-37.8-8.7-38.2-8.4c-0.3,0.3,2.8,5.7,9.9,17c6.7,10.7,13,21,12.9,21.1c-8.7-0.9-17-2.4-26.6-3.4
		c-9.8-1.3-21.2-3.1-35.7-5.4c-16.5-2.6-21.7-3.7-32.7-6.9c-7-2-9.2-2.5-24.1-5.8c-84.1-18.1-92-21-146.9-27.4
		c-8.2-0.6-11.4-0.9-18.9-1.8c-0.1,0,0.5-0.6,1.2-1.4c8-8.1,19.7-20.5,26.9-28.2c-1.8-0.1-4.8,0-10.9,0.1c-13,0.3-22.5,0.2-22.8-0.1
		c-0.2-0.2,1.6-1.7,6.8-5.4C27.5,305.6,43.6,294,49,290c1.2-0.9,2.1-1.6,2.1-1.7c-0.1-0.3-5.5-2.8-15-6.8
		c-10.6-4.5-15.6-6.8-15.3-7.1c0.8-1,40.3-14.7,42.4-15.4c3.8-1.4,12.2-4.7,14.8-5.7c2.4-0.9,2.5-1.2,1.7-2.7
		c-0.9-1.9-2.2-3.5-15.6-19.2c-2.8-3.4-4.7-5.4-5-6.2l0.2-0.2c0.6-0.5,2.4-0.4,17.8,0.7c3,0.2,5.4,0.4,5.4,0.4s-3-3-6.8-6.6
		l-6.8-6.6c6.3-0.1,28.2-0.1,38.3-0.2c-6.7-17.5-10-34.7-6.7-46.1c2.5-10.9,8.2-21.1,15-29c-7.7-16.4-8.3-30.3-3.7-49.8
		c3.1-12.3,20.4-56.1,25.5-64.5C138.1,21.8,138.3,21.7,139.4,22.1 M142,41.9c-2.3,0.9-4.2,3.6-8.9,13.1
		c-14.9,31.3-20.6,57.9-9.1,79.6c1.2,2.4,2.2,4.5,2.2,4.5c0,0.1-1.3,1.5-2.9,3.2c-12.1,12.8-16.8,25.8-14.8,43.2
		c0.7,4.9,2.8,12.8,6.1,22.5c4.3,12.6,4.7,14,4.4,14.2c-0.6,0.4-2.8,0.9-6.2,1.5c-5.2,0.7-12.4,2.3-15.4,3.3
		c3.2,2.9,7.8,5.2,12.8,7.3c5.1,2.1,7.2,3.1,6.7,3.3c-1.3,0.3-12,0.3-25.9,0c-4.4-0.1-8-0.2-8.1-0.2c0,0,0.2,0.3,0.6,0.7
		c10.7,10,20.4,19.3,20.1,19.4c-16.4,1.5-31.5,5.6-43.5,13.9c-6.9,4.6-6.8,4.7,3.4,10.6c5.1,2.9,7.9,4.6,7.9,4.9
		c-1.2,1.6-20.3,13.9-20.7,15.8c0,0.6,5.9,1.2,20.4,1.8c3.2,0.1,6,0.3,6.2,0.3c0.4,0.1,0.3,0.1-2.2,1.6c-7.9,3.6-30,25.2-28.9,29.5
		c-0.6,1.7,37.2,6.4,51.4,5.3c15.2-1.1,29.6-4.2,32.1-7.1c1.7-1.9,1.4-4.9-0.6-5.8c-1.1-0.7-9.6,1.2-13.4,2.3
		c-12.6,3.2-24.9,3.7-42,1.8c-14.8-1.6-14.9-1.7-10.5-6.4c7.2-7.5,15.7-13.3,27-18.4c12.6-5.6,16.7-8.1,15.6-9.4
		c-0.7-0.8-5.5-1.1-17.6-1.3c-11.1-0.1-14.3-0.4-14.3-1.2c0-0.9,7.4-5.3,12.3-7.3c8.2-3.4,15.5-3.9,26.6-2.1c6.6,1.1,7.9,1,9.4-0.6
		c3.4-3.4,0.5-5.7-9.3-7.5c-11.9-2.2-21.6-1.4-29.8,2.6c-3.5,1.6-3.7,1.6-7.8-1.1c-2.9-1.9-4.8-2.9-5.7-3.1
		c-2.5-0.4,4.5-4.9,10.7-6.9c6.6-2.1,15.2-3.3,27.1-3.7c6.1-0.2,20.1,0,21.2,0.3c0.7,0.2-0.2,4.4-4.5,19.1l-2.3,7.9
		c11,14,18.6,23.5,31.8,29.7c3.6,1.6,5.2,1.8,13.6,1.9c12.5,0.1,17.1-0.5,30.8-3.9c9.3-2.3,13.9-3.8,15.7-5c0.8-0.5,0.7-0.4,1.7-2.7
		c1.4-3.3,9.9-21.8,10.1-22c0,0,1.5,0.6,3.2,1.5c6.8,3.6,9.9,4.4,20.2,5.6c9.6,1.1,11.7,1.8,17.5,5.9c4.8,3.1,14.2,11.7,21.6,18.7
		c-1.2,0.1-3.1,0-6.8,0c-8.3-0.1-8,0-13.8-5.1c-9.2-8.3-16.9-12.1-28.7-14.2c-10-1.8-14.1-1.2-14.1,2.1c0,2.8,2.2,3.8,11,5.4
		c5.5,1,11.8,2.9,14.9,4.5c5.9,3,19.6,15.7,17.8,16.4c-0.7,0.3-5.6-1-13.7-3.5c-11.9-3.7-16.6-4.7-16.9-3.6
		c-0.2,0.5,2.7,4.4,8.9,11.8c10.1,12.1,13.7,17.6,17,25.9c1,2.5,2.7,7.1,2.7,7.2c0,0-0.6,0-1.2,0c-26.6-1.4-40.7-3.4-54.9-17.8
		c-9-8.3-12.1-9.2-12.7-3.6c-0.2,2.3,1.7,5,7.6,10.4c14.5,13.2,26.8,17.4,55.8,18.8c10.8,0.5,14.3,0.3,14.8-1
		c1.2-2.9-6.2-21.9-12.7-32.2c-2.2-3.5-3.3-5.5-3.2-5.6c0.1-0.1,3.8,1,10.2,3c14.7,4.5,18.6,5.5,18.9,4.7s-3.6-6.7-8-12.2l-1.8-2.1
		c5.4-1,10.3-1.5,15.8-1.6c5.9-0.2,8.2-0.6,8.2-1.3c0-2.1-12.5-15.4-23-24.5c-3.9-3.4-5.5-5-5.5-5.6c0-0.3,0.5-0.6,1.2-0.8
		c2.6-0.8,2.1-1.6-9.6-13.6c-8.5-8.8-12.7-13.1-13.6-14.8c0.8,0,3.1,0.5,6.9,1.4c4.8,1.1,8.6,1.8,12.2,2.2c1.6,0.2,8.4,0.8,8.5,0.7
		c0.2,0.1-8-7.4-7.8-7.3c0,0,6.2-0.1,13.6-0.1c12.8-0.1,14.9-0.1,18.2-0.4c10.3,0.4,50.1-13.2,58-18.2c3.3-2.4,1.5-6.6-9.2-20.8
		c-21.6-28.8-38-45.3-52.3-52.5c-9.9-4.8-9.7-7.5-16.8-14.9c-3.6-4.2-16.6-16.9-23.4-23.8l4.3-2.7c16.7-10.5,23.1-15.4,20.8-15.7
		c-2.7-0.4-14-0.7-37.2-1.1c-7.5-0.1-13.7-0.2-13.7-0.2c-0.3-1.6-2.5-51.1-3.6-56c-0.2-1.5-0.3-1.6-0.7-1.6
		c-2.5,0-20.9,19.6-23.7,25.3c-3.8,7.7-3.3,15.7,1.6,24c0.8,1.7,4.8,6.7,6.8,9.4c-0.1,0-10.9-0.7-11-0.7c0,0-0.1-1.8-0.1-4.1
		c-0.2-9.2-0.6-11.5-2.8-16.5c-6.2-14-18.3-27.3-39.7-43.3C148.9,43.1,144.8,40.8,142,41.9 M148,52.1c21.8,13.8,39.1,28.7,47.1,40.7
		c5.4,7.9,6.9,14.2,7.6,23.4c-3,0-8.1,0.1-10.7,0c-4.4-0.2-4.5-0.2-4.1-3.2c0.6-4.5-3.1-9.5-14-18.4c-12.3-10.1-22.4-17.6-23.2-17.3
		c-1.1,0.4-13.5,25.4-16.5,33.3c-1.3,3.4-1.3,8.1-0.1,11.2c0.9,2.3,1.9,3.5,4.7,5.7c1,0.8,1.8,1.4,1.8,1.4
		c-3.6,2.5-11.6,7.9-11.8,7.9c-1.2,0-3.9-4.8-5-8.9c-2.2-8.4-2.2-20.7,0-30.7c2-10,13.2-35.7,20.5-47.4
		C144.4,49.8,146,50.8,148,52.1 M226.2,74.6c0.6,6.1,7,43.2,7.5,43.7c-0.2,0.6,31.5,4.2,31.6,5.3c0,0.4-3,2.2-6.6,4
		c-5.7,2.8-8.4,3.4-16.8,3.9c-7.5,0.4-11.1,0.9-11.1,1.5c0,1.1,5.6,3.2,11.9,4.4c4.2,0.9,8.9,1,13.9,0.9c5.9,6.5,15.6,17,18,20.2
		c20.9,25.6,25.4,44.1,16.4,66.6c-4.5,11.3-9.8,18.2-18.5,24.5c-4.3,3-13,8.2-13.4,8c-1-0.6-7.4-12.1-10.6-19.4
		c-0.9-1.9-4.2-10.2-4.1-10.3c4,0.9,10.6,2.6,12.5,2.5c0.1-1.2-2.3-3.3-7.8-8.1c-6.8-5.8-13.1-10.7-14.3-11
		c-2.4-0.6-8-14.5-12.6-31.4c-2.9-10.5-4.4-14.4-5.4-14.4s-2.3,2.5-3.9,7.2c-1.7,5.3-4.3,9.4-8.4,13.6c-2.9,3-5.5,4.9-11.3,8.1
		c-0.1,0.1,0.1-0.5,1.4-3.2c5.5-11.9,11.5-22.5,4-29.6c-1.9-1.7-2.3-1.9-3.8-1.1c-4.8,2.4-22.1,12.9-33.8,20.6
		c-5.7,3.8-5.7,3.8-13.9,2.8c-9.9-1.2-13.1-1-12.5,0.5c0.3,0.8,1.2,1.4,5,3.7c1.3,0.8,2.3,1.5,2.3,1.5s-1.7,0.3-3.7,0.6
		c-9.1,1.5-10.7,1.9-10.7,3.1c0,1.2,1.2,1.6,8.7,2.9c5.2,0.9,5.4,1,4.5,2.1c-1.6,2.1-3.5,3.2-5.9,3.4c-4.7,0.3-7.1,3.1-7.3,8.5
		c-0.2,4.9-0.9,6.6-3,7.7c-0.9,0.4-1,0.4-1.2-0.2c-9.5-29.4-13.8-55.8,11.2-74.7c18.3-14.6,36.5-20,70.7-21.1
		c10-0.3,15.1-0.7,15.1-1.3c0-0.4-1.3-3.4-3.6-8.2c-4.9-10.5-5.8-15.2-3.7-21.3c1.6-4.9,7.4-13.2,11.5-16.6
		C225.8,73.6,226.1,73.6,226.2,74.6 M152.1,81.6c1.6,0.4,36.4,31.3,27.1,34.8c-0.5,0.2-2.8,0.6-7.8,1.5c-7.9,1.4-13.2,2.8-18.4,4.9
		c-5.1,2.1-6.7,2.3-9,1.1c-2.1-1.1-2.5-1.9-2.7-6.1c-0.3-6.7,0.5-11.3,3.2-19.3c1.9-5.4,5.7-15.2,6.6-16.8
		C151.4,81.3,151.5,81.3,152.1,81.6 M196.9,166.2c2.1,8.5-3.5,15.5-12.4,28.9c-2.8,4.1-3.5,4.9-3.9,4.9c-1.9,0-16.8-11.1-16.6-12.3
		s24.4-17.9,31-21.4C196.4,165.6,196.6,165.6,196.9,166.2 M298.2,176.3c3.2,1.7,12.2,9.2,17,14.3c11.9,12.6,39.9,49.7,39.2,51.9
		c-0.2,0.7-4.1,2.9-10,5.5c-10.3,4.6-10.2,4.6-18.1-0.4c-13.8-8.9-20.5-11.1-29.1-9.5c-3.4,0.7-5.6,0.9-5.6,0.6
		c0-0.2,0.7-1.6,1.7-3.3c8.3-15,13-35.6,6-52c-1.6-4.2-2.6-7.2-2.4-7.5C297,175.8,297.3,175.9,298.2,176.3 M217.7,186.3
		c1.2,5.5,5.8,21.2,5.9,24.4c-4.3,0-10-1-13.6-0.8c-3.2,0-3.7,0.1-4.9,0.5c-1.4,0.6-0.9,1,4.7,4.1c4,2.2,3.7,2.1,3.5,2.2
		c-0.1,0-1.7,0.5-3.4,1c-6.1,1.7-7,2.1-6.8,2.8c0.4,1.2,5.6,2.4,16.8,3.8c9.1,1.1,10.5,1.7,14.4,5.6c2.1,2.1,3.7,4,3.6,4.4
		c-0.1,0.4-1.6,0.8-4,0.9c-5.2,0.2-8.9,2.6-10.1,6.4c-1.3,4.2,4.5,11.3,10.6,13.1c4.8,1.4,9.7,0.8,12.5-1.6c1.8-1.5,2.1-1.5,3.7,0.7
		c1.5,2,6.3,11.4,6,11.7c0,0-1.5,0.2-3.3,0.3c-5,0.3-7.2,0.7-7.2,1.2c0,0.1,1.4,2.2,2.7,4c1.4,1.9,1.1,1.5,5.4,7.3
		c6.8,9.2,8.9,12.3,8.5,12.5c-1.6,0.9-17.1-0.2-22.9-1.6c-2.4-0.6-5.6-2.6-9.1-5.9c-5.1-4.7-8.3-4.9-9.4-0.7
		c-0.7,2.7-1.6,3.2-7.9,4.4c-20.5,4.1-39.8,5.3-47.2,2.9c-7-2.3-12.9-6.4-19.6-13.4c-3.9-4.1-5.7-5.7-5.8-5.2c0,0.1-0.4,1.1-0.8,2.2
		c-0.4,1.1-1.9,5.7-3.4,10.1c-5,14.8-5.7,16.2-7,13.8c-0.8-1.6-0.3-4.2,3.1-15.2c2.7-8.6,4.2-13.7,4.6-15.8c0.3-1.3,0.5-1.9,1.1-3.1
		c0.4-0.8,2.7-4.2,2.8-4.2c16.4,24.7,32.1,26.7,68.2,21.2c21.3-3.6,22.3-4.8,3.5-4.1c-6.7,0.2-14.1,0.2-14.1,0c0,0,0.3-0.2,0.7-0.3
		c6.6-2.7,18.1-8.4,18.1-8.9s-5.2,0.6-14,2.9c-15,4-23.2,4.7-30.9,2.9c-8.2-2-13-5.9-23-18.7c-4.3-5.5-7.1-8.8-7.6-8.8
		c-0.6,0,0.3,2.3,3.1,8.1c2.6,5.3,3.6,7.5,3.5,7.7c-0.1,0.1-1.4-1.1-5.2-4.9c-4.9-4.9-6.5-6.3-7.4-6c-1.2,0,2.4,5.1,3.1,6.5
		c-0.1,0.1-9.1,0.9-10.9,1c-7.5,0.5-11.4-0.7-18.2-5.8c-1.7-1.2-9.3-7.3-9.2-7.3c0.4-0.4,9.4-1.7,16.3-2.4c4.8-0.5,8.8-1.2,9-1.6
		c0.3-0.4-1.6-2.3-4.7-4.6c-2.2-1.6-4.4-3.5-4.6-4c-0.2-0.4,1.7-1,5.5-1.6c7.3-1.1,9.8-3.3,7.8-6.8c-0.9-1.6-0.9-2.2,0.1-3.2
		c1.3-1.3,2.2-1.2,4.7,0.3c7.6,4.6,17.5,1.7,17.5-5.1c0-3.7-2.8-9-5.4-10.3c-1.2-0.6-1.4-0.8-1-1.7c1.3-2.5,3.8-4.7,5.6-4.9
		c2.4-0.2,20.4,11.7,22,14.5c0.7,1.3,2.2,1.1,4.2-0.3c1.6-1.2,3.7-2.7,7.7-5.3c15.1-10.1,21.7-16,27.7-25.1c1.4-2.1,2-3,2.7-4
		C216.5,180.2,217.4,185,217.7,186.3 M154.8,188.9c2.7,0.7,7.3,3.4,10.7,6.3c1.3,1.1,1.8,1.8,1.3,1.8c-2.1,0-0.4,3.7-0.6,4.6
		c0,0-1.3-0.9-2.9-2.1c-4.6-3.4-6.9-4.7-9.2-4.9c-3.4-0.3-3.9-2-0.8-2.3c1.6-0.1,1.6-0.3,0.1-2.2
		C152.5,188.8,152.9,188.4,154.8,188.9 M176.2,203.6c2.1,1,2.3,1.6,0.9,2.7c-1.6,1.3-2.2,1.2-3.2-0.8
		C172.8,203.1,173.7,202.4,176.2,203.6 M137.6,206.6c4.1,1.2,6.3,2.3,7.9,3.9c4.2,4.3,2.7,8.9-3,9.6c-4.6,0.6-11.2-4-12.3-8.5
		c-0.7-2.7,0.6-4.4,4.1-5.3C134.7,206.1,136.6,206.3,137.6,206.6 M168,210.7c-0.9,0.8-2.2,5.4-2.2,7.8c0,1.2,1.6-2.6,2.6-6.3
		C168.8,210.8,168.6,210.2,168,210.7 M226.4,215.1c4.9,0.4,8.8,1.7,11.9,3.9c0.8,0.6,4.7,4,4.7,4.1c-1.6-0.1-7.1-2.1-5.7,0.1
		c0.9,1.8-1.8,1.5-3.9-0.5c-1.5-1.4-2.8-1.7-7-1.9c-2.5-0.1-3.3-0.4-3.1-1C224.2,215.8,218,214.7,226.4,215.1 M165.4,225.2
		c0,0.4,0.7,5.5,0.9,6.4c1.4,7,5.8,13.7,10.5,16c10.3,5.1,25.2-0.7,34.1-13.2c2-2.7,4.9-8.2,4.4-8.2c-0.3,0-1.5,1.6-5.7,7.9
		c-2.5,3.7-4.3,5.5-7.1,7.4c-6,4-16.1,5.4-22.3,3.1c-5.8-2.2-9.2-6.3-13.2-16C165.5,225,165.4,224.9,165.4,225.2 M236.6,240.3
		c6.6,1.7,11.4,7.6,8.5,10.6c-4.3,4.6-13.9,2.5-16.8-3.7C226,242.4,230.4,238.7,236.6,240.3 M302.8,245.5c8.3-0.1,21.1,5,29.3,7.9
		c-10,4.2-30.7,9.6-41.3,9.9c-3.8,0.3-14.5,0.2-19-0.2c-8.4-0.7-8.6-2-0.8-6.5c5.1-3,8.3-5.1,12.7-8.5c2.2-1.7,3.8-2.3,6.5-2.5
		C291.6,245.4,300.4,245.4,302.8,245.5 M203.6,291.8c2,1.9-0.2,5.5-3,5.1c-1.9-0.2-2.1-1.1-0.4-3.5
		C201.3,291.6,202.6,291,203.6,291.8 M179.3,292.6c1.2,0.8,0.9,2.9-1.4,8.7c-3.1,8-6.2,13.5-7.4,13.4c-2.1-0.1-1.5-2.9,2.8-13.1
		C176.8,293.5,178,291.7,179.3,292.6 M198.4,301c2.7,0.2,3.5,0.4,8.5,2.5c5.2,2.1,5.2,2.1,2.2,2.8c-6.1,1.4-11.3,1.5-15.7,0.4
		c-3.5-0.9-9.1-3.4-8.9-4C184.7,301.8,194.1,300.7,198.4,301 M135,302c0.6,0.2,1.8,0.9,3.6,2.1c14,9.1,35.6,13.3,54.3,13.4
		c-11.2,1.7-17.7,2.2-25.6,0.7c-12.8-2.1-23.9-7.4-31.7-15.1C134.4,302,134.2,301.7,135,302 M194.3,310.5c1.6,0.4,2.1,1.4,1.1,2.4
		C193.1,315.5,189.5,309.1,194.3,310.5"/>
</g>
</svg>
